<svg xmlns="http://www.w3.org/2000/svg" viewBox="0 0 512 512" width="512" height="512">
  <defs>
    <clipPath id="round"><rect x="0" y="0" width="512" height="512" rx="112" /></clipPath>
  </defs>
  <g clip-path="url(#round)">
    <rect x="0" y="0" width="512" height="512" fill="#e8312f" />
    <g transform="translate(63.4 63.25) scale(0.75)" fill="#ffffff">
      <path d="M147.531342,1.000000 C171.188690,6.606392 187.374954,21.121832 199.500656,41.046772 C210.392853,58.944805 216.550644,78.491623 219.044769,99.047173 C221.084564,115.858391 221.211807,132.847015 219.495148,149.785065 C218.843079,156.218842 218.943710,162.711548 218.578522,169.172409 C217.249969,192.678101 214.180069,215.972794 211.280823,239.297028 C210.475555,245.775375 207.038910,249.483139 200.241013,251.183395 C175.981842,257.250946 151.712250,263.276886 127.443855,269.307526 C121.496719,270.785400 115.538239,272.217590 109.586655,273.677612 C100.139008,275.995270 95.392021,272.951355 91.364960,263.989838 C83.459267,246.397110 77.152885,228.242661 71.065018,209.988403 C70.541260,208.417923 69.978645,206.824524 69.752670,205.197540 C69.141365,200.796219 71.527275,196.808197 75.510117,195.920776 C79.720093,194.982727 83.354744,195.653503 85.546204,200.140381 C88.194145,205.561920 89.432899,211.430771 91.286545,217.093811 C95.266853,229.254089 100.421394,240.948471 104.970329,252.881104 C106.074295,255.776993 107.525322,256.699310 111.013794,255.798523 C137.189865,249.039444 163.418991,242.476730 189.712357,236.190689 C193.824722,235.207504 195.173294,233.056595 195.578003,229.496338 C196.961685,217.323883 198.394943,205.156357 199.668152,192.972214 C202.222092,168.531662 204.162201,144.036652 203.592239,119.445953 C202.940414,91.324173 196.063293,64.908623 179.334839,41.882378 C171.320587,30.850969 160.949036,22.110102 147.340363,18.570639 C131.807953,14.530838 118.174591,19.173286 106.041367,29.002316 C87.455315,44.058708 77.240013,64.077835 73.799171,87.255440 C71.968193,99.589035 70.712929,112.089409 71.991196,124.872597 C73.343384,138.395050 74.758949,151.850098 77.192459,165.219330 C78.586014,172.875229 75.158249,177.587875 68.837486,177.315811 C64.955185,177.148697 62.141140,175.565414 61.305912,171.452377 C59.363789,161.888489 57.578827,152.312973 56.600742,142.577164 C55.538952,132.008209 54.358925,121.476173 54.628189,110.818542 C55.130703,90.928604 57.525562,71.322067 66.014854,53.150509 C76.227180,31.290745 91.523918,14.058389 114.259773,4.376898 C116.673546,3.349051 119.560738,3.568269 121.796555,1.281594 C130.354233,1.000000 138.708466,1.000000 147.531342,1.000000 z" />
      <path d="M319.468658,513.000000 C312.142670,509.395020 304.640503,507.098358 298.296539,502.431488 C285.534698,493.043457 277.872009,480.529236 274.670410,465.093719 C272.668060,455.440216 273.408600,445.898651 275.859772,436.517059 C280.260864,419.672394 284.943512,402.900635 289.592896,386.121796 C292.229187,376.607971 297.960510,373.208557 307.566071,375.740875 C336.704437,383.422546 365.820953,391.188965 394.908630,399.060394 C405.465607,401.917206 408.318939,406.960358 405.600616,417.654724 C401.195648,434.984894 397.035400,452.394318 391.990997,469.540558 C386.112549,489.521515 373.624451,503.776581 353.369110,510.465912 C351.981171,510.924286 350.723297,511.776398 349.202454,512.722656 C339.312439,513.000000 329.624878,513.000000 319.468658,513.000000 M318.519379,493.847015 C341.330322,503.140564 368.095367,489.648102 374.940277,466.180359 C377.029114,459.018921 379.092346,451.848389 381.036224,444.646606 C383.659821,434.926636 386.156799,425.172455 388.696228,415.478455 C385.800720,413.673126 382.936462,413.496429 380.265137,412.778381 C357.075592,406.544678 333.833588,400.501831 310.698578,394.073425 C306.180084,392.817902 304.763916,394.252472 303.791321,398.261353 C301.995087,405.664978 299.735382,412.954895 297.856689,420.340027 C295.165375,430.919708 291.169434,441.283569 290.486176,452.227997 C289.566559,466.958282 299.174316,486.395905 318.519379,493.847015 z" />
      <path d="M442.639862,216.716675 C442.999084,197.373138 441.423950,178.729614 434.635162,160.951782 C427.147491,141.343704 414.637115,125.764946 395.550751,116.394951 C380.085449,108.802635 365.047302,111.307854 351.334930,120.952591 C332.486938,134.209518 322.850830,153.683685 316.367126,175.058273 C310.153473,195.542679 309.660309,216.640472 310.497467,237.729996 C311.206665,255.596252 312.856445,273.434082 314.438446,291.253540 C315.447479,302.619568 317.111725,313.926880 318.438812,325.265594 C318.850861,328.786011 320.599762,330.671570 324.177277,331.533905 C350.239380,337.815887 376.301422,344.108215 402.263062,350.787537 C406.829407,351.962341 408.029480,350.082520 409.471893,346.700989 C414.817963,334.167908 419.326782,321.328552 423.865601,308.494476 C425.062134,305.111023 426.957520,302.218872 431.013123,301.686615 C434.249115,301.261963 436.906250,302.189758 438.941742,304.805939 C441.147491,307.640961 440.795013,310.936768 439.892181,313.884308 C434.736481,330.717163 428.357880,347.102386 420.895996,363.045319 C418.371918,368.438171 412.057190,370.729187 404.960938,368.972321 C374.539886,361.440918 344.133148,353.850983 313.746429,346.182312 C306.304077,344.304047 303.480804,340.380157 302.617218,332.785919 C300.804688,316.847168 298.456085,300.964325 296.912659,285.001953 C296.020752,275.777893 295.222687,266.503845 294.815613,257.253845 C294.106812,241.147430 292.766663,225.013550 293.714905,208.887680 C295.511444,178.335754 302.947296,149.512817 322.162201,124.911591 C333.369110,110.563164 347.286713,99.717339 365.789001,96.430275 C385.445038,92.938240 403.088684,98.196899 418.557007,110.353096 C440.821869,127.850555 452.503357,151.653503 457.059357,179.032761 C459.563446,194.080994 459.884644,209.291534 458.578674,224.661682 C457.087280,242.214340 454.585510,259.502930 450.405426,276.575073 C448.796936,283.144287 445.889923,284.858673 439.617035,283.294769 C435.230255,282.201080 432.969635,277.862061 434.120453,272.624054 C437.713257,256.271362 441.069305,239.886749 441.716217,223.078461 C441.792053,221.106949 442.317505,219.152740 442.639862,216.716675 z" />
      <path d="M229.543091,393.400360 C211.017929,419.835663 176.699295,424.491089 152.416122,412.126984 C135.553833,403.541290 125.774872,389.319580 121.139427,371.187103 C117.038452,355.145325 112.365334,339.245453 108.491798,323.151276 C105.508804,310.757172 109.508720,306.541077 118.548798,304.106384 C136.476547,299.278107 154.408035,294.463654 172.345154,289.670288 C183.227539,286.762177 194.172699,284.076630 204.999146,280.975189 C215.766678,277.890717 221.543137,280.604584 224.646286,291.382385 C228.128006,303.475037 231.179642,315.691650 234.407501,327.857208 C237.038467,337.773163 240.229568,347.547699 240.382858,357.992279 C240.571960,370.877563 236.942200,382.510071 229.543091,393.400360 M134.412079,355.281158 C135.418259,358.958923 136.472763,362.624268 137.422867,366.316467 C144.576340,394.115082 170.058685,408.098358 196.058823,398.703827 C214.606003,392.002289 226.621811,369.236572 222.905396,351.978699 C220.670670,341.601349 217.633987,331.455048 215.105148,321.167664 C213.184174,313.353088 210.833374,305.644165 208.600098,297.623474 C180.547150,305.130829 153.090988,312.478455 125.105026,319.967865 C128.270859,331.825592 131.293243,343.145996 134.412079,355.281158 z" />
    </g>
  </g>
</svg>
